<svg xmlns="http://www.w3.org/2000/svg" xmlns:xlink="http://www.w3.org/1999/xlink" width="500" zoomAndPan="magnify" viewBox="0 0 375 374.999991" height="500" preserveAspectRatio="xMidYMid meet" version="1.0"><defs><clipPath id="88f3eaecbe"><path d="M 108.042969 114.402344 L 267.042969 114.402344 L 267.042969 260.652344 L 108.042969 260.652344 Z M 108.042969 114.402344 " clip-rule="nonzero"/></clipPath><clipPath id="f62a77e3af"><path d="M 249 188 L 267.042969 188 L 267.042969 235 L 249 235 Z M 249 188 " clip-rule="nonzero"/></clipPath><clipPath id="48ccc90875"><path d="M 108.042969 189 L 125 189 L 125 235 L 108.042969 235 Z M 108.042969 189 " clip-rule="nonzero"/></clipPath><clipPath id="8389daa98c"><path d="M 126 220 L 250 220 L 250 260.652344 L 126 260.652344 Z M 126 220 " clip-rule="nonzero"/></clipPath><clipPath id="6f14e73207"><path d="M 110 114.402344 L 267 114.402344 L 267 260.652344 L 110 260.652344 Z M 110 114.402344 " clip-rule="nonzero"/></clipPath><clipPath id="84354a8517"><path d="M 122 114.402344 L 255 114.402344 L 255 242 L 122 242 Z M 122 114.402344 " clip-rule="nonzero"/></clipPath></defs><g clip-path="url(#88f3eaecbe)"><path fill="#cac9c9" d="M 254.066406 224.800781 C 252.515625 226.242188 250.421875 227.230469 248.363281 228.019531 C 248.25 227.792969 248.140625 227.558594 247.988281 227.339844 C 247.804688 227.0625 247.617188 226.773438 247.425781 226.472656 C 247.238281 226.171875 246.996094 225.898438 246.773438 225.597656 C 246.332031 224.988281 245.773438 224.425781 245.226562 223.804688 C 244.628906 223.234375 244.027344 222.609375 243.324219 222.039062 C 242.652344 221.433594 241.886719 220.886719 241.113281 220.292969 C 241.03125 220.238281 240.949219 220.179688 240.871094 220.125 C 241.859375 218.941406 242.789062 217.746094 243.644531 216.546875 C 245.566406 213.847656 247.105469 211.097656 248.414062 208.464844 C 250.503906 204.105469 251.855469 200 252.710938 196.382812 C 255.96875 200.003906 259 203.996094 260.238281 208.746094 C 261.796875 214.726562 258.347656 220.832031 254.066406 224.800781 Z M 115.195312 209.265625 C 116.101562 204.6875 119.007812 200.742188 122.089844 197.234375 C 122.140625 197.425781 122.183594 197.617188 122.234375 197.808594 L 122.742188 199.535156 C 122.914062 200.109375 123.078125 200.691406 123.289062 201.253906 C 124.835938 205.816406 126.957031 210.230469 129.601562 214.335938 C 130.867188 216.3125 132.273438 218.203125 133.785156 220.007812 C 133.582031 220.15625 133.375 220.300781 133.175781 220.453125 C 132.472656 220.945312 131.828125 221.519531 131.167969 222.0625 C 130.847656 222.351562 130.539062 222.652344 130.222656 222.945312 C 129.902344 223.230469 129.609375 223.546875 129.320312 223.867188 C 128.71875 224.480469 128.195312 225.171875 127.664062 225.847656 L 126.941406 226.929688 C 126.761719 227.183594 126.617188 227.46875 126.472656 227.75 C 124.847656 227.074219 123.273438 226.246094 121.953125 225.207031 C 117.371094 221.59375 114.03125 215.140625 115.195312 209.265625 Z M 254.011719 188.425781 C 254.15625 186.832031 254.21875 185.464844 254.285156 184.363281 C 254.296875 182.113281 254.304688 180.917969 254.304688 180.917969 C 254.304688 144.183594 224.519531 114.402344 187.777344 114.402344 C 187.777344 114.402344 186.578125 114.410156 184.328125 114.421875 C 182.085938 114.554688 178.769531 114.65625 174.628906 115.453125 C 173.59375 115.644531 172.511719 115.898438 171.375 116.136719 C 170.242188 116.410156 169.070312 116.742188 167.839844 117.070312 C 165.417969 117.832031 162.796875 118.695312 160.113281 119.902344 C 158.75 120.460938 157.402344 121.164062 155.996094 121.851562 C 155.300781 122.210938 154.617188 122.609375 153.910156 122.996094 C 153.558594 123.195312 153.199219 123.382812 152.851562 123.59375 C 152.503906 123.808594 152.152344 124.023438 151.800781 124.242188 C 150.375 125.082031 149 126.074219 147.570312 127.066406 C 146.882812 127.597656 146.183594 128.132812 145.480469 128.671875 C 145.121094 128.9375 144.777344 129.222656 144.4375 129.519531 C 144.09375 129.808594 143.75 130.101562 143.402344 130.394531 C 137.902344 135.128906 132.640625 141.175781 128.582031 148.496094 C 124.503906 155.785156 121.574219 164.292969 120.542969 173.382812 C 120.457031 173.949219 120.421875 174.527344 120.375 175.101562 C 120.328125 175.679688 120.28125 176.257812 120.234375 176.835938 C 120.175781 177.421875 120.171875 177.984375 120.152344 178.550781 C 120.136719 179.121094 120.117188 179.6875 120.101562 180.257812 L 120.085938 180.6875 L 120.082031 180.929688 L 120.085938 181.148438 L 120.105469 182.019531 C 120.117188 182.601562 120.128906 183.1875 120.140625 183.773438 C 120.140625 184.355469 120.195312 184.941406 120.234375 185.527344 C 120.277344 186.109375 120.320312 186.699219 120.363281 187.285156 C 120.421875 188.023438 120.515625 188.761719 120.613281 189.503906 C 114.6875 195.664062 109.136719 202.070312 108.535156 211.0625 C 108.046875 218.347656 112.71875 226.460938 118.53125 230.621094 C 120.382812 231.945312 122.488281 233.113281 124.730469 234.0625 L 124.730469 234.109375 L 124.726562 234.1875 C 124.722656 234.316406 124.726562 234.269531 124.726562 234.316406 C 124.757812 234.75 124.785156 235.179688 124.8125 235.613281 C 124.867188 236.039062 124.960938 236.457031 125.035156 236.882812 C 125.105469 237.304688 125.265625 237.699219 125.378906 238.109375 C 125.914062 239.722656 126.730469 241.195312 127.6875 242.515625 C 128.675781 243.816406 129.769531 244.996094 130.957031 246.035156 C 133.3125 248.132812 135.925781 249.753906 138.53125 251.144531 C 143.773438 253.894531 149.082031 255.667969 154.035156 256.953125 C 158.988281 258.261719 163.625 259.03125 167.738281 259.558594 C 171.855469 260.085938 175.460938 260.34375 178.433594 260.496094 C 181.40625 260.628906 183.746094 260.640625 185.335938 260.632812 C 186.925781 260.613281 187.777344 260.605469 187.777344 260.605469 C 222.023438 260.605469 249.800781 248.867188 249.960938 234.363281 C 252.316406 233.433594 254.550781 232.269531 256.550781 230.957031 C 262.679688 226.925781 267.027344 218.914062 267.035156 211.601562 C 267.042969 202.046875 260.542969 195.089844 254.011719 188.425781 " fill-opacity="1" fill-rule="nonzero"/></g><path fill="#989696" d="M 254.066406 224.800781 C 252.515625 226.242188 250.421875 227.230469 248.363281 228.019531 C 248.394531 228.078125 248.425781 228.132812 248.457031 228.191406 C 248.59375 228.46875 248.75 228.730469 248.859375 229 C 249.078125 229.519531 249.257812 230.007812 249.402344 230.464844 C 252.199219 229.480469 255.226562 228.242188 257.402344 226.222656 C 262.21875 221.753906 265.828125 214.890625 264.085938 208.210938 C 262.421875 201.820312 258.148438 196.851562 253.554688 192.109375 C 253.457031 192.738281 253.347656 193.382812 253.210938 194.058594 C 253.070312 194.804688 252.898438 195.585938 252.710938 196.382812 C 255.96875 200.003906 259 203.996094 260.238281 208.746094 C 261.796875 214.726562 258.347656 220.832031 254.066406 224.800781 " fill-opacity="1" fill-rule="nonzero"/><g clip-path="url(#f62a77e3af)"><path fill="#989696" d="M 254.011719 188.425781 C 253.988281 188.683594 253.960938 188.957031 253.929688 189.226562 C 255.734375 191.074219 257.519531 192.933594 259.167969 194.90625 C 263.085938 199.59375 266.945312 205.234375 266.941406 211.601562 C 266.9375 218.195312 262.988281 225.582031 257.449219 229.222656 C 255.21875 230.695312 252.636719 232 249.914062 232.96875 C 249.921875 233.140625 249.925781 233.292969 249.933594 233.429688 C 249.933594 233.492188 249.9375 233.558594 249.941406 233.613281 C 249.957031 234.023438 249.964844 234.238281 249.964844 234.238281 C 249.964844 234.28125 249.960938 234.320312 249.960938 234.363281 C 252.316406 233.433594 254.550781 232.269531 256.550781 230.957031 C 262.679688 226.925781 267.027344 218.914062 267.035156 211.601562 C 267.042969 202.046875 260.542969 195.089844 254.011719 188.425781 " fill-opacity="1" fill-rule="nonzero"/></g><path fill="#989696" d="M 121.953125 225.207031 C 117.371094 221.59375 114.03125 215.140625 115.195312 209.265625 C 116.101562 204.6875 119.007812 200.742188 122.089844 197.234375 C 121.894531 196.445312 121.703125 195.652344 121.519531 194.867188 C 117.914062 198.859375 114.3125 203.40625 113.257812 208.730469 C 111.960938 215.292969 115.351562 222.539062 120.535156 226.625 C 121.96875 227.753906 123.703125 228.792969 125.585938 229.667969 C 125.796875 229.117188 126.035156 228.578125 126.300781 228.058594 C 126.359375 227.957031 126.417969 227.851562 126.472656 227.75 C 124.847656 227.074219 123.273438 226.246094 121.953125 225.207031 " fill-opacity="1" fill-rule="nonzero"/><g clip-path="url(#48ccc90875)"><path fill="#989696" d="M 124.753906 233.65625 L 124.785156 233.054688 C 124.820312 232.683594 124.878906 232.320312 124.945312 231.960938 C 122.988281 231.082031 121.152344 230.039062 119.546875 228.886719 C 114.285156 225.125 110.105469 217.621094 110.542969 211.0625 C 111.0625 203.28125 115.710938 197.375 120.953125 191.847656 C 120.894531 191.5 120.828125 191.152344 120.777344 190.804688 C 120.726562 190.371094 120.667969 189.933594 120.613281 189.503906 C 114.6875 195.664062 109.136719 202.070312 108.535156 211.0625 C 108.046875 218.347656 112.71875 226.460938 118.53125 230.621094 C 120.382812 231.945312 122.488281 233.113281 124.730469 234.0625 L 124.738281 233.960938 L 124.753906 233.65625 " fill-opacity="1" fill-rule="nonzero"/></g><g clip-path="url(#8389daa98c)"><path fill="#cac9c9" d="M 249.914062 233.617188 C 249.894531 233.410156 249.875 233.15625 249.847656 232.855469 C 249.789062 232.558594 249.71875 232.21875 249.640625 231.828125 C 249.460938 231.058594 249.144531 230.128906 248.648438 229.097656 C 248.113281 228.089844 247.441406 226.949219 246.480469 225.832031 C 246.03125 225.25 245.464844 224.714844 244.90625 224.125 C 244.300781 223.582031 243.691406 222.984375 242.984375 222.449219 C 242.304688 221.875 241.535156 221.359375 240.757812 220.804688 C 240.660156 220.738281 240.558594 220.675781 240.460938 220.613281 C 239.34375 221.917969 238.144531 223.203125 236.863281 224.460938 C 236.703125 224.621094 236.535156 224.777344 236.371094 224.933594 C 237.445312 226.667969 238.019531 228.488281 238.019531 230.363281 C 238.019531 242.128906 215.523438 251.667969 187.777344 251.667969 C 160.027344 251.667969 137.535156 242.128906 137.535156 230.363281 C 137.535156 228.660156 138.007812 227.003906 138.898438 225.414062 C 137.546875 224.140625 136.246094 222.808594 135.007812 221.421875 C 134.765625 221.59375 134.519531 221.765625 134.285156 221.945312 C 133.617188 222.410156 133.015625 222.949219 132.386719 223.457031 C 131.804688 224.007812 131.1875 224.527344 130.664062 225.121094 C 130.097656 225.6875 129.617188 226.3125 129.125 226.921875 L 128.46875 227.890625 C 128.234375 228.203125 128.085938 228.558594 127.886719 228.890625 C 127.164062 230.253906 126.6875 231.710938 126.523438 233.15625 L 126.484375 233.761719 L 126.464844 234.0625 L 126.457031 234.214844 L 126.449219 234.289062 C 126.457031 234.210938 126.453125 234.304688 126.457031 234.308594 L 126.515625 235.421875 C 126.5625 235.789062 126.640625 236.152344 126.699219 236.519531 C 126.753906 236.882812 126.898438 237.234375 126.988281 237.589844 C 127.445312 239.003906 128.15625 240.332031 129.019531 241.550781 C 129.917969 242.742188 130.914062 243.863281 132.015625 244.863281 C 134.207031 246.878906 136.699219 248.492188 139.210938 249.886719 C 141.730469 251.273438 144.308594 252.40625 146.84375 253.398438 C 149.378906 254.390625 151.890625 255.199219 154.324219 255.890625 C 159.195312 257.28125 163.765625 258.195312 167.839844 258.851562 C 171.914062 259.503906 175.5 259.875 178.457031 260.125 C 181.417969 260.339844 183.746094 260.476562 185.335938 260.527344 C 186.929688 260.578125 187.777344 260.605469 187.777344 260.605469 C 222.023438 260.605469 249.800781 248.867188 249.960938 234.363281 C 249.960938 234.320312 249.964844 234.28125 249.964844 234.238281 C 249.964844 234.238281 249.945312 234.027344 249.914062 233.617188 " fill-opacity="1" fill-rule="nonzero"/></g><g clip-path="url(#6f14e73207)"><path fill="#a5a3a4" d="M 125.585938 229.667969 C 123.703125 228.792969 121.96875 227.753906 120.535156 226.625 C 115.351562 222.539062 111.960938 215.292969 113.257812 208.730469 C 114.3125 203.40625 117.914062 198.859375 121.519531 194.867188 C 121.703125 195.652344 121.894531 196.445312 122.089844 197.234375 C 122.140625 197.425781 122.183594 197.617188 122.234375 197.808594 L 122.742188 199.535156 C 122.914062 200.109375 123.078125 200.691406 123.289062 201.253906 C 124.835938 205.816406 126.957031 210.230469 129.601562 214.335938 C 130.867188 216.3125 132.273438 218.203125 133.785156 220.007812 C 133.582031 220.15625 133.375 220.300781 133.175781 220.453125 C 132.472656 220.945312 131.828125 221.519531 131.167969 222.0625 C 130.847656 222.351562 130.539062 222.652344 130.222656 222.945312 C 129.902344 223.230469 129.609375 223.546875 129.320312 223.867188 C 128.71875 224.480469 128.195312 225.171875 127.664062 225.847656 L 126.941406 226.929688 C 126.761719 227.183594 126.617188 227.46875 126.472656 227.75 C 126.417969 227.851562 126.359375 227.957031 126.300781 228.058594 C 126.035156 228.578125 125.796875 229.117188 125.585938 229.667969 Z M 243.644531 216.546875 C 245.566406 213.847656 247.105469 211.097656 248.414062 208.464844 C 250.503906 204.105469 251.855469 200 252.710938 196.382812 C 252.898438 195.585938 253.070312 194.804688 253.210938 194.058594 C 253.347656 193.382812 253.457031 192.738281 253.554688 192.109375 C 258.148438 196.851562 262.421875 201.820312 264.085938 208.210938 C 265.828125 214.890625 262.21875 221.753906 257.402344 226.222656 C 255.226562 228.242188 252.199219 229.480469 249.402344 230.464844 C 249.257812 230.007812 249.078125 229.519531 248.859375 229 C 248.75 228.730469 248.59375 228.46875 248.457031 228.191406 C 248.425781 228.132812 248.394531 228.078125 248.363281 228.019531 C 248.25 227.792969 248.140625 227.558594 247.988281 227.339844 C 247.804688 227.0625 247.617188 226.773438 247.425781 226.472656 C 247.238281 226.171875 246.996094 225.898438 246.773438 225.597656 C 246.332031 224.988281 245.773438 224.425781 245.226562 223.804688 C 244.628906 223.234375 244.027344 222.609375 243.324219 222.039062 C 242.652344 221.433594 241.886719 220.886719 241.113281 220.292969 C 241.03125 220.238281 240.949219 220.179688 240.871094 220.125 C 241.859375 218.941406 242.789062 217.746094 243.644531 216.546875 Z M 178.457031 260.125 C 175.5 259.875 171.914062 259.503906 167.839844 258.851562 C 163.765625 258.195312 159.195312 257.28125 154.324219 255.890625 C 151.890625 255.199219 149.378906 254.390625 146.84375 253.398438 C 144.308594 252.40625 141.730469 251.273438 139.210938 249.886719 C 136.699219 248.492188 134.207031 246.878906 132.015625 244.863281 C 130.914062 243.863281 129.917969 242.742188 129.019531 241.550781 C 128.15625 240.332031 127.445312 239.003906 126.988281 237.589844 C 126.898438 237.234375 126.753906 236.882812 126.699219 236.519531 C 126.640625 236.152344 126.5625 235.789062 126.515625 235.421875 L 126.457031 234.308594 C 126.453125 234.304688 126.457031 234.210938 126.449219 234.289062 L 126.457031 234.214844 L 126.464844 234.0625 L 126.484375 233.761719 L 126.523438 233.15625 C 126.6875 231.710938 127.164062 230.253906 127.886719 228.890625 C 128.085938 228.558594 128.234375 228.203125 128.46875 227.890625 L 129.125 226.921875 C 129.617188 226.3125 130.097656 225.6875 130.664062 225.121094 C 131.1875 224.527344 131.804688 224.007812 132.386719 223.457031 C 133.015625 222.949219 133.617188 222.410156 134.285156 221.945312 C 134.519531 221.765625 134.765625 221.59375 135.007812 221.421875 C 136.246094 222.808594 137.546875 224.140625 138.898438 225.414062 C 138.941406 225.453125 138.984375 225.492188 139.023438 225.535156 C 139.902344 226.390625 140.859375 227.152344 141.789062 227.949219 C 142.246094 228.351562 142.742188 228.710938 143.226562 229.085938 L 144.683594 230.199219 C 145.691406 230.886719 146.679688 231.605469 147.710938 232.257812 C 148.753906 232.890625 149.765625 233.574219 150.839844 234.144531 C 155.078125 236.542969 159.546875 238.46875 164.121094 239.925781 C 168.695312 241.394531 173.378906 242.347656 178.042969 242.886719 C 178.628906 242.945312 179.210938 243.003906 179.792969 243.066406 C 180.375 243.125 180.957031 243.1875 181.542969 243.214844 C 182.128906 243.246094 182.714844 243.28125 183.300781 243.316406 C 183.886719 243.351562 184.46875 243.386719 185.035156 243.386719 C 185.605469 243.398438 186.175781 243.40625 186.742188 243.414062 L 187.59375 243.429688 C 187.925781 243.433594 188.183594 243.417969 188.480469 243.414062 C 189.054688 243.398438 189.625 243.386719 190.199219 243.371094 C 190.769531 243.355469 191.339844 243.347656 191.910156 243.296875 C 201.015625 242.820312 209.71875 240.734375 217.386719 237.421875 C 221.222656 235.769531 224.808594 233.820312 228.070312 231.628906 C 231.125 229.570312 233.898438 227.308594 236.371094 224.933594 C 236.535156 224.777344 236.703125 224.621094 236.863281 224.460938 C 238.144531 223.203125 239.34375 221.917969 240.460938 220.613281 C 240.558594 220.675781 240.660156 220.738281 240.757812 220.804688 C 241.535156 221.359375 242.304688 221.875 242.984375 222.449219 C 243.691406 222.984375 244.300781 223.582031 244.90625 224.125 C 245.464844 224.714844 246.03125 225.25 246.480469 225.832031 C 247.441406 226.949219 248.113281 228.089844 248.648438 229.097656 C 249.144531 230.128906 249.460938 231.058594 249.640625 231.828125 C 249.71875 232.21875 249.789062 232.558594 249.847656 232.855469 C 249.875 233.15625 249.894531 233.410156 249.914062 233.617188 C 249.945312 234.027344 249.964844 234.238281 249.964844 234.238281 C 249.964844 234.238281 249.957031 234.023438 249.941406 233.613281 C 249.9375 233.558594 249.933594 233.492188 249.933594 233.429688 C 249.925781 233.292969 249.921875 233.140625 249.914062 232.96875 C 252.636719 232 255.21875 230.695312 257.449219 229.222656 C 262.988281 225.582031 266.9375 218.195312 266.941406 211.601562 C 266.945312 205.234375 263.085938 199.59375 259.167969 194.90625 C 257.519531 192.933594 255.734375 191.074219 253.929688 189.226562 C 253.960938 188.957031 253.988281 188.683594 254.011719 188.425781 C 254.15625 186.832031 254.21875 185.464844 254.285156 184.363281 C 254.296875 182.113281 254.304688 180.917969 254.304688 180.917969 C 254.304688 180.917969 254.246094 182.113281 254.144531 184.359375 C 253.933594 186.589844 253.644531 189.875 252.726562 193.957031 C 251.824219 198.03125 250.226562 202.886719 247.566406 208.035156 C 246.199219 210.589844 244.613281 213.238281 242.652344 215.820312 C 240.6875 218.402344 238.441406 220.972656 235.847656 223.402344 C 230.6875 228.277344 224.160156 232.566406 216.644531 235.664062 C 209.132812 238.769531 200.648438 240.640625 191.796875 241.042969 C 191.242188 241.085938 190.6875 241.089844 190.128906 241.097656 C 189.574219 241.105469 189.019531 241.117188 188.460938 241.125 C 188.191406 241.128906 187.878906 241.140625 187.644531 241.132812 L 186.792969 241.109375 C 186.222656 241.097656 185.652344 241.082031 185.082031 241.066406 C 184.507812 241.0625 183.949219 241.023438 183.394531 240.980469 C 182.835938 240.945312 182.273438 240.90625 181.714844 240.867188 C 181.152344 240.839844 180.589844 240.769531 180.027344 240.707031 C 179.460938 240.644531 178.898438 240.582031 178.332031 240.519531 C 173.960938 239.96875 169.582031 239.042969 165.304688 237.695312 C 165.164062 237.652344 165.019531 237.609375 164.875 237.5625 C 160.460938 236.140625 156.15625 234.269531 152.089844 231.953125 C 151.054688 231.402344 150.085938 230.738281 149.085938 230.128906 C 148.707031 229.890625 148.335938 229.632812 147.96875 229.378906 C 147.371094 228.96875 146.78125 228.550781 146.183594 228.144531 L 144.789062 227.070312 C 144.328125 226.710938 143.851562 226.367188 143.414062 225.972656 C 142.527344 225.207031 141.605469 224.476562 140.773438 223.652344 C 137.339844 220.457031 134.25 216.882812 131.71875 212.957031 C 129.179688 209.039062 127.136719 204.824219 125.640625 200.457031 C 124.136719 196.089844 123.191406 191.570312 122.746094 187.058594 C 122.699219 186.492188 122.652344 185.925781 122.605469 185.363281 C 122.5625 184.800781 122.503906 184.238281 122.5 183.671875 C 122.480469 183.109375 122.464844 182.546875 122.445312 181.984375 L 122.421875 181.140625 L 122.414062 180.929688 L 122.417969 180.746094 L 122.425781 180.316406 C 122.4375 179.746094 122.449219 179.179688 122.460938 178.609375 C 122.476562 178.042969 122.476562 177.46875 122.527344 176.925781 C 122.566406 176.375 122.605469 175.824219 122.644531 175.277344 C 122.6875 174.730469 122.714844 174.183594 122.792969 173.632812 C 123.726562 164.84375 126.410156 156.5625 130.265625 149.417969 C 132.179688 145.839844 134.398438 142.546875 136.785156 139.558594 C 139.171875 136.566406 141.734375 133.878906 144.378906 131.503906 C 144.710938 131.207031 145.042969 130.914062 145.371094 130.625 C 145.695312 130.328125 146.027344 130.039062 146.371094 129.773438 C 147.050781 129.230469 147.722656 128.691406 148.386719 128.15625 C 149.074219 127.65625 149.753906 127.160156 150.425781 126.671875 L 150.929688 126.304688 L 151.445312 125.964844 C 151.789062 125.734375 152.128906 125.511719 152.46875 125.285156 C 152.804688 125.0625 153.140625 124.839844 153.476562 124.617188 C 153.8125 124.402344 154.160156 124.207031 154.5 124.003906 C 155.179688 123.601562 155.84375 123.1875 156.515625 122.8125 C 157.878906 122.097656 159.183594 121.363281 160.507812 120.773438 C 163.117188 119.503906 165.679688 118.574219 168.050781 117.746094 C 169.257812 117.386719 170.40625 117.023438 171.519531 116.71875 C 172.640625 116.449219 173.703125 116.164062 174.726562 115.945312 C 178.8125 115.042969 182.101562 114.773438 184.335938 114.558594 C 186.578125 114.457031 187.777344 114.402344 187.777344 114.402344 C 187.777344 114.402344 186.578125 114.410156 184.328125 114.421875 C 182.085938 114.554688 178.769531 114.65625 174.628906 115.453125 C 173.59375 115.644531 172.511719 115.898438 171.375 116.136719 C 170.242188 116.410156 169.070312 116.742188 167.839844 117.070312 C 165.417969 117.832031 162.796875 118.695312 160.113281 119.902344 C 158.75 120.460938 157.402344 121.164062 155.996094 121.851562 C 155.300781 122.210938 154.617188 122.609375 153.910156 122.996094 C 153.558594 123.195312 153.199219 123.382812 152.851562 123.59375 C 152.503906 123.808594 152.152344 124.023438 151.800781 124.242188 C 150.375 125.082031 149 126.074219 147.570312 127.066406 C 146.882812 127.597656 146.183594 128.132812 145.480469 128.671875 C 145.121094 128.9375 144.777344 129.222656 144.4375 129.519531 C 144.09375 129.808594 143.75 130.101562 143.402344 130.394531 C 137.902344 135.128906 132.640625 141.175781 128.582031 148.496094 C 124.503906 155.785156 121.574219 164.292969 120.542969 173.382812 C 120.457031 173.949219 120.421875 174.527344 120.375 175.101562 C 120.328125 175.679688 120.28125 176.257812 120.234375 176.835938 C 120.175781 177.421875 120.171875 177.984375 120.152344 178.550781 C 120.136719 179.121094 120.117188 179.6875 120.101562 180.257812 L 120.085938 180.6875 L 120.082031 180.929688 L 120.085938 181.148438 L 120.105469 182.019531 C 120.117188 182.601562 120.128906 183.1875 120.140625 183.773438 C 120.140625 184.355469 120.195312 184.941406 120.234375 185.527344 C 120.277344 186.109375 120.320312 186.699219 120.363281 187.285156 C 120.421875 188.023438 120.515625 188.761719 120.613281 189.503906 C 120.667969 189.933594 120.726562 190.371094 120.777344 190.804688 C 120.828125 191.152344 120.894531 191.5 120.953125 191.847656 C 115.710938 197.375 111.0625 203.28125 110.542969 211.0625 C 110.105469 217.621094 114.285156 225.125 119.546875 228.886719 C 121.152344 230.039062 122.988281 231.082031 124.945312 231.960938 C 124.878906 232.320312 124.820312 232.683594 124.785156 233.054688 L 124.753906 233.65625 L 124.738281 233.960938 L 124.730469 234.0625 L 124.730469 234.109375 L 124.726562 234.1875 C 124.722656 234.316406 124.726562 234.269531 124.726562 234.316406 C 124.757812 234.75 124.785156 235.179688 124.8125 235.613281 C 124.867188 236.039062 124.960938 236.457031 125.035156 236.882812 C 125.105469 237.304688 125.265625 237.699219 125.378906 238.109375 C 125.914062 239.722656 126.730469 241.195312 127.6875 242.515625 C 128.675781 243.816406 129.769531 244.996094 130.957031 246.035156 C 133.3125 248.132812 135.925781 249.753906 138.53125 251.144531 C 143.773438 253.894531 149.082031 255.667969 154.035156 256.953125 C 158.988281 258.261719 163.625 259.03125 167.738281 259.558594 C 171.855469 260.085938 175.460938 260.34375 178.433594 260.496094 C 181.40625 260.628906 183.746094 260.640625 185.335938 260.632812 C 186.925781 260.613281 187.777344 260.605469 187.777344 260.605469 C 187.777344 260.605469 186.929688 260.578125 185.335938 260.527344 C 183.746094 260.476562 181.417969 260.339844 178.457031 260.125 " fill-opacity="1" fill-rule="nonzero"/></g><path fill="#e5e4e4" d="M 217.386719 237.421875 C 209.71875 240.734375 201.015625 242.820312 191.910156 243.296875 C 191.339844 243.347656 190.769531 243.355469 190.199219 243.371094 C 189.625 243.386719 189.054688 243.398438 188.480469 243.414062 C 188.183594 243.417969 187.925781 243.433594 187.59375 243.429688 L 186.742188 243.414062 C 186.175781 243.40625 185.605469 243.398438 185.035156 243.386719 C 184.46875 243.386719 183.886719 243.351562 183.300781 243.316406 C 182.714844 243.28125 182.128906 243.246094 181.542969 243.214844 C 180.957031 243.1875 180.375 243.125 179.792969 243.066406 C 179.210938 243.003906 178.628906 242.945312 178.042969 242.886719 C 173.378906 242.347656 168.695312 241.394531 164.121094 239.925781 C 159.546875 238.46875 155.078125 236.542969 150.839844 234.144531 C 149.765625 233.574219 148.753906 232.890625 147.710938 232.257812 C 146.679688 231.605469 145.691406 230.886719 144.683594 230.199219 L 143.226562 229.085938 C 142.742188 228.710938 142.246094 228.351562 141.789062 227.949219 C 140.859375 227.152344 139.902344 226.390625 139.023438 225.535156 C 138.984375 225.492188 138.941406 225.453125 138.898438 225.414062 C 138.007812 227.003906 137.535156 228.660156 137.535156 230.363281 C 137.535156 242.128906 160.027344 251.667969 187.777344 251.667969 C 215.523438 251.667969 238.019531 242.128906 238.019531 230.363281 C 238.019531 228.488281 237.445312 226.667969 236.371094 224.933594 C 233.898438 227.308594 231.125 229.570312 228.070312 231.628906 C 224.808594 233.820312 221.222656 235.769531 217.386719 237.421875 " fill-opacity="1" fill-rule="nonzero"/><g clip-path="url(#84354a8517)"><path fill="#d5d4d5" d="M 174.726562 115.945312 C 173.703125 116.164062 172.640625 116.449219 171.519531 116.71875 C 170.40625 117.023438 169.257812 117.386719 168.050781 117.746094 C 165.679688 118.574219 163.117188 119.503906 160.507812 120.773438 C 159.183594 121.363281 157.878906 122.097656 156.515625 122.8125 C 155.84375 123.1875 155.179688 123.601562 154.5 124.003906 C 154.160156 124.207031 153.8125 124.402344 153.476562 124.617188 C 153.140625 124.839844 152.804688 125.0625 152.46875 125.285156 C 152.128906 125.511719 151.789062 125.734375 151.445312 125.964844 L 150.929688 126.304688 L 150.425781 126.671875 C 149.753906 127.160156 149.074219 127.65625 148.386719 128.15625 C 147.722656 128.691406 147.050781 129.230469 146.371094 129.773438 C 146.027344 130.039062 145.695312 130.328125 145.371094 130.625 C 145.042969 130.914062 144.710938 131.207031 144.378906 131.503906 C 141.734375 133.878906 139.171875 136.566406 136.785156 139.558594 C 134.398438 142.546875 132.179688 145.839844 130.265625 149.417969 C 126.410156 156.5625 123.726562 164.84375 122.792969 173.632812 C 122.714844 174.183594 122.6875 174.730469 122.644531 175.277344 C 122.605469 175.824219 122.566406 176.375 122.527344 176.925781 C 122.476562 177.46875 122.476562 178.042969 122.460938 178.609375 C 122.449219 179.179688 122.4375 179.746094 122.425781 180.316406 L 122.417969 180.746094 L 122.414062 180.929688 L 122.421875 181.140625 L 122.445312 181.984375 C 122.464844 182.546875 122.480469 183.109375 122.5 183.671875 C 122.503906 184.238281 122.5625 184.800781 122.605469 185.363281 C 122.652344 185.925781 122.699219 186.492188 122.746094 187.058594 C 123.191406 191.570312 124.136719 196.089844 125.640625 200.457031 C 127.136719 204.824219 129.179688 209.039062 131.71875 212.957031 C 134.25 216.882812 137.339844 220.457031 140.773438 223.652344 C 141.605469 224.476562 142.527344 225.207031 143.414062 225.972656 C 143.851562 226.367188 144.328125 226.710938 144.789062 227.070312 L 146.183594 228.144531 C 146.78125 228.550781 147.371094 228.96875 147.96875 229.378906 C 133.433594 219.339844 124.09375 203.230469 124.09375 183.328125 C 124.09375 148.933594 151.980469 121.054688 186.378906 121.054688 C 220.777344 121.054688 248.664062 148.933594 248.664062 183.328125 C 248.664062 217.71875 220.777344 240.78125 186.378906 240.78125 C 178.980469 240.78125 171.886719 239.710938 165.304688 237.695312 C 169.582031 239.042969 173.960938 239.96875 178.332031 240.519531 C 178.898438 240.582031 179.460938 240.644531 180.027344 240.707031 C 180.589844 240.769531 181.152344 240.839844 181.714844 240.867188 C 182.273438 240.90625 182.835938 240.945312 183.394531 240.980469 C 183.949219 241.023438 184.507812 241.0625 185.082031 241.066406 C 185.652344 241.082031 186.222656 241.097656 186.792969 241.109375 L 187.644531 241.132812 C 187.878906 241.140625 188.191406 241.128906 188.460938 241.125 C 189.019531 241.117188 189.574219 241.105469 190.128906 241.097656 C 190.6875 241.089844 191.242188 241.085938 191.796875 241.042969 C 200.648438 240.640625 209.132812 238.769531 216.644531 235.664062 C 224.160156 232.566406 230.6875 228.277344 235.847656 223.402344 C 238.441406 220.972656 240.6875 218.402344 242.652344 215.820312 C 244.613281 213.238281 246.199219 210.589844 247.566406 208.035156 C 250.226562 202.886719 251.824219 198.03125 252.726562 193.957031 C 253.644531 189.875 253.933594 186.589844 254.144531 184.359375 C 254.246094 182.113281 254.304688 180.917969 254.304688 180.917969 C 254.304688 144.183594 224.519531 114.402344 187.777344 114.402344 C 187.777344 114.402344 186.578125 114.457031 184.335938 114.558594 C 182.101562 114.773438 178.8125 115.042969 174.726562 115.945312 " fill-opacity="1" fill-rule="nonzero"/></g><path fill="#e2e2e2" d="M 147.421875 224.867188 C 137.871094 217.082031 132.824219 205.792969 132.824219 192.230469 C 132.824219 190.65625 132.886719 189.105469 133.015625 187.621094 C 133.480469 182.050781 134.785156 176.605469 136.902344 171.4375 C 137.921875 168.929688 139.164062 166.449219 140.582031 164.082031 C 141.566406 162.433594 142.648438 160.832031 143.796875 159.296875 C 142.617188 157.941406 141.894531 156.175781 141.894531 154.234375 C 141.894531 149.976562 145.347656 146.523438 149.609375 146.523438 C 151.53125 146.523438 153.289062 147.230469 154.636719 148.398438 C 164.082031 141.246094 175.648438 137.292969 187.777344 137.292969 C 199.898438 137.292969 211.417969 141.195312 220.910156 148.398438 C 222.261719 147.230469 224.015625 146.523438 225.9375 146.523438 C 230.199219 146.523438 233.652344 149.976562 233.652344 154.234375 C 233.652344 156.171875 232.9375 157.933594 231.757812 159.289062 C 238.875 168.742188 242.722656 180.1875 242.722656 192.230469 C 242.722656 201.808594 240.269531 210.164062 235.429688 217.058594 C 230.957031 223.425781 224.585938 228.359375 216.488281 231.726562 C 213.90625 232.8125 211.082031 233.746094 208.097656 234.496094 C 205.269531 235.214844 202.257812 235.773438 199.160156 236.160156 C 195.546875 236.613281 191.714844 236.839844 187.777344 236.839844 C 185.367188 236.839844 183.007812 236.757812 180.769531 236.589844 C 167.132812 235.589844 155.597656 231.539062 147.421875 224.867188 Z M 248.664062 183.328125 C 248.664062 148.933594 220.777344 121.054688 186.378906 121.054688 C 151.980469 121.054688 124.09375 148.933594 124.09375 183.328125 C 124.09375 203.230469 133.433594 219.339844 147.96875 229.378906 C 148.335938 229.632812 148.707031 229.890625 149.085938 230.128906 C 150.085938 230.738281 151.054688 231.402344 152.089844 231.953125 C 156.15625 234.269531 160.460938 236.140625 164.875 237.5625 C 165.019531 237.609375 165.164062 237.652344 165.304688 237.695312 C 171.886719 239.710938 178.980469 240.78125 186.378906 240.78125 C 220.777344 240.78125 248.664062 217.71875 248.664062 183.328125 " fill-opacity="1" fill-rule="nonzero"/><path fill="#ffffff" d="M 231.757812 159.289062 C 232.9375 157.933594 233.652344 156.171875 233.652344 154.234375 C 233.652344 149.976562 230.199219 146.523438 225.9375 146.523438 C 224.015625 146.523438 222.261719 147.230469 220.910156 148.398438 C 222.910156 149.914062 224.824219 151.574219 226.628906 153.382812 C 228.492188 155.246094 230.203125 157.21875 231.757812 159.289062 " fill-opacity="1" fill-rule="nonzero"/><path fill="#ffffff" d="M 154.636719 148.398438 C 153.289062 147.230469 151.53125 146.523438 149.609375 146.523438 C 145.347656 146.523438 141.894531 149.976562 141.894531 154.234375 C 141.894531 156.175781 142.617188 157.941406 143.796875 159.296875 C 144.269531 158.667969 144.75 158.042969 145.246094 157.441406 C 148.042969 154.023438 151.203125 151 154.636719 148.398438 " fill-opacity="1" fill-rule="nonzero"/><path fill="#203131" d="M 235.015625 192.230469 C 235.015625 166.140625 213.863281 145 187.777344 145 C 173.039062 145 159.875 151.742188 151.210938 162.320312 L 213.519531 224.617188 C 226.457031 219.238281 235.015625 208.824219 235.015625 192.230469 " fill-opacity="1" fill-rule="nonzero"/><path fill="#203131" d="M 222.3125 204.488281 L 222.636719 203.089844 L 222.964844 204.488281 L 224.363281 204.816406 L 222.964844 205.144531 L 222.636719 206.542969 L 222.3125 205.144531 L 220.914062 204.816406 L 222.3125 204.488281 " fill-opacity="1" fill-rule="nonzero"/><path fill="#203131" d="M 184.09375 167.121094 L 183.5625 169.402344 L 183.027344 167.121094 L 180.746094 166.585938 L 183.027344 166.054688 L 183.5625 163.773438 L 184.09375 166.054688 L 186.378906 166.585938 L 184.09375 167.121094 " fill-opacity="1" fill-rule="nonzero"/><path fill="#203131" d="M 203.140625 193.597656 L 202.605469 195.878906 L 202.070312 193.597656 L 199.789062 193.0625 L 202.070312 192.527344 L 202.605469 190.246094 L 203.140625 192.527344 L 205.421875 193.0625 L 203.140625 193.597656 " fill-opacity="1" fill-rule="nonzero"/><path fill="#203131" d="M 206.210938 227.023438 L 147.203125 168.03125 C 145.996094 170.046875 144.929688 172.160156 144.039062 174.351562 L 198.203125 228.511719 C 200.972656 228.167969 203.648438 227.675781 206.210938 227.023438 " fill-opacity="1" fill-rule="nonzero"/><path fill="#203131" d="M 140.53125 192.230469 C 140.53125 216.128906 158.292969 227.21875 181.332031 228.902344 L 140.695312 188.273438 C 140.585938 189.578125 140.53125 190.894531 140.53125 192.230469 " fill-opacity="1" fill-rule="nonzero"/><path fill="#c8c7c7" d="M 140.53125 192.230469 C 140.53125 190.894531 140.585938 189.578125 140.695312 188.273438 C 141.101562 183.382812 142.253906 178.707031 144.039062 174.351562 C 144.929688 172.160156 145.996094 170.046875 147.203125 168.03125 C 148.402344 166.023438 149.742188 164.113281 151.210938 162.320312 C 159.875 151.742188 173.039062 145 187.777344 145 C 213.863281 145 235.015625 166.140625 235.015625 192.230469 C 235.015625 208.824219 226.457031 219.238281 213.519531 224.617188 C 211.21875 225.585938 208.773438 226.378906 206.210938 227.023438 C 203.648438 227.675781 200.972656 228.167969 198.203125 228.511719 C 194.84375 228.933594 191.359375 229.132812 187.777344 229.132812 C 185.589844 229.132812 183.4375 229.058594 181.332031 228.902344 C 158.292969 227.21875 140.53125 216.128906 140.53125 192.230469 Z M 199.160156 236.160156 C 202.257812 235.773438 205.269531 235.214844 208.097656 234.496094 C 211.082031 233.746094 213.90625 232.8125 216.488281 231.726562 C 224.585938 228.359375 230.957031 223.425781 235.429688 217.058594 C 240.269531 210.164062 242.722656 201.808594 242.722656 192.230469 C 242.722656 180.1875 238.875 168.742188 231.757812 159.289062 C 230.203125 157.21875 228.492188 155.246094 226.628906 153.382812 C 224.824219 151.574219 222.910156 149.914062 220.910156 148.398438 C 211.417969 141.195312 199.898438 137.292969 187.777344 137.292969 C 175.648438 137.292969 164.082031 141.246094 154.636719 148.398438 C 151.203125 151 148.042969 154.023438 145.246094 157.441406 C 144.75 158.042969 144.269531 158.667969 143.796875 159.296875 C 142.648438 160.832031 141.566406 162.433594 140.582031 164.082031 C 139.164062 166.449219 137.921875 168.929688 136.902344 171.4375 C 134.785156 176.605469 133.480469 182.050781 133.015625 187.621094 C 132.886719 189.105469 132.824219 190.65625 132.824219 192.230469 C 132.824219 205.792969 137.871094 217.082031 147.421875 224.867188 C 155.597656 231.539062 167.132812 235.589844 180.769531 236.589844 C 183.007812 236.757812 185.367188 236.839844 187.777344 236.839844 C 191.714844 236.839844 195.546875 236.613281 199.160156 236.160156 " fill-opacity="1" fill-rule="nonzero"/><path fill="#265a70" d="M 152.886719 196.1875 L 152.558594 197.585938 L 152.234375 196.1875 L 150.835938 195.859375 L 152.234375 195.53125 L 152.558594 194.136719 L 152.886719 195.53125 L 154.285156 195.859375 Z M 198.203125 228.511719 L 144.039062 174.351562 C 142.253906 178.707031 141.101562 183.382812 140.695312 188.273438 L 181.332031 228.902344 C 183.4375 229.058594 185.589844 229.132812 187.777344 229.132812 C 191.359375 229.132812 194.84375 228.933594 198.203125 228.511719 " fill-opacity="1" fill-rule="nonzero"/><path fill="#265a70" d="M 213.519531 224.617188 L 151.210938 162.320312 C 149.742188 164.113281 148.402344 166.023438 147.203125 168.03125 L 206.210938 227.023438 C 208.773438 226.378906 211.21875 225.585938 213.519531 224.617188 " fill-opacity="1" fill-rule="nonzero"/><path fill="#ffffff" d="M 202.605469 190.246094 L 202.070312 192.527344 L 199.789062 193.0625 L 202.070312 193.597656 L 202.605469 195.878906 L 203.140625 193.597656 L 205.421875 193.0625 L 203.140625 192.527344 L 202.605469 190.246094 " fill-opacity="1" fill-rule="nonzero"/><path fill="#ffffff" d="M 183.5625 163.773438 L 183.027344 166.054688 L 180.746094 166.585938 L 183.027344 167.121094 L 183.5625 169.402344 L 184.09375 167.121094 L 186.378906 166.585938 L 184.09375 166.054688 L 183.5625 163.773438 " fill-opacity="1" fill-rule="nonzero"/><path fill="#ffffff" d="M 152.558594 194.136719 L 152.234375 195.53125 L 150.835938 195.859375 L 152.234375 196.1875 L 152.558594 197.585938 L 152.886719 196.1875 L 154.285156 195.859375 L 152.886719 195.53125 L 152.558594 194.136719 " fill-opacity="1" fill-rule="nonzero"/><path fill="#ffffff" d="M 222.636719 206.542969 L 222.964844 205.144531 L 224.363281 204.816406 L 222.964844 204.488281 L 222.636719 203.089844 L 222.3125 204.488281 L 220.914062 204.816406 L 222.3125 205.144531 L 222.636719 206.542969 " fill-opacity="1" fill-rule="nonzero"/></svg>