<svg xmlns="http://www.w3.org/2000/svg" xmlns:xlink="http://www.w3.org/1999/xlink" width="200" zoomAndPan="magnify" viewBox="0 0 150 37.5" height="50" preserveAspectRatio="xMidYMid meet" version="1.0"><defs><g/></defs><g fill="#004d7a" fill-opacity="1"><g transform="translate(16.504636, 32.32941)"><g><path d="M 10.363281 -12.210938 L 10.363281 -9.3125 C 11.101562 -9.066406 11.75 -8.664062 12.273438 -8.140625 C 12.953125 -7.308594 13.199219 -6.476562 13.011719 -5.613281 C 12.859375 -4.75 12.398438 -4.101562 11.59375 -3.640625 C 10.917969 -3.332031 10.175781 -3.113281 9.25 -2.992188 C 8.355469 -2.898438 7.617188 -2.867188 6.96875 -2.898438 C 6.351562 -2.960938 5.457031 -2.992188 4.285156 -3.113281 C 3.144531 -3.238281 2.3125 -3.332031 1.820312 -3.359375 L 1.632812 -0.460938 C 2.191406 -0.460938 3.144531 -0.402344 4.5625 -0.277344 C 6.011719 -0.152344 7.15625 -0.125 7.988281 -0.0625 C 8.851562 -0.03125 9.804688 -0.09375 10.917969 -0.277344 C 12.058594 -0.460938 13.011719 -0.800781 13.753906 -1.265625 C 15.234375 -2.21875 16.035156 -3.699219 16.160156 -5.675781 C 16.28125 -7.402344 15.851562 -8.757812 14.863281 -9.804688 C 13.9375 -10.855469 12.425781 -11.65625 10.363281 -12.210938 Z M 3.855469 -20.351562 C 2.4375 -19.398438 1.664062 -18.007812 1.542969 -16.160156 C 1.480469 -14.585938 1.882812 -13.320312 2.773438 -12.335938 C 3.640625 -11.472656 5.210938 -10.730469 7.433594 -10.113281 L 7.433594 -12.984375 C 6.875 -13.042969 6.351562 -13.261719 5.921875 -13.628906 C 5.488281 -14.03125 5.210938 -14.460938 5.027344 -14.925781 C 4.839844 -15.417969 4.78125 -15.882812 4.871094 -16.375 C 4.996094 -16.898438 5.242188 -17.332031 5.613281 -17.640625 C 6.042969 -17.949219 6.539062 -18.195312 7.183594 -18.347656 C 7.863281 -18.535156 8.605469 -18.625 9.4375 -18.625 C 10.300781 -18.65625 11.007812 -18.65625 11.59375 -18.625 C 12.210938 -18.625 12.921875 -18.5625 13.785156 -18.472656 C 14.648438 -18.410156 15.171875 -18.347656 15.296875 -18.316406 L 15.480469 -21.214844 L 13.230469 -21.371094 C 12.210938 -21.464844 11.347656 -21.523438 10.640625 -21.554688 C 9.960938 -21.617188 9.160156 -21.648438 8.265625 -21.585938 C 7.402344 -21.554688 6.570312 -21.464844 5.828125 -21.246094 C 5.089844 -21.0625 4.441406 -20.753906 3.855469 -20.351562 Z M 3.855469 -20.351562 "/></g></g></g><g fill="#004d7a" fill-opacity="1"><g transform="translate(34.203752, 32.32941)"><g><path d="M 1.542969 -21.710938 L 1.542969 -10.390625 L 4.472656 -10.390625 C 5.488281 -9.46875 6.507812 -8.480469 7.554688 -7.402344 C 8.632812 -6.351562 10.023438 -4.933594 11.71875 -3.207031 C 13.445312 -1.480469 14.492188 -0.433594 14.863281 -0.03125 L 18.75 -0.03125 L 7.214844 -11.59375 L 17.976562 -21.710938 L 14.183594 -21.710938 L 4.472656 -12.550781 L 4.472656 -21.710938 Z M 1.542969 -7.738281 L 1.542969 -0.03125 L 4.472656 -0.03125 L 4.472656 -7.738281 Z M 1.542969 -7.738281 "/></g></g></g><g fill="#004d7a" fill-opacity="1"><g transform="translate(54.462148, 32.32941)"><g><path d="M 1.542969 -21.648438 L 9.191406 -10.332031 L 12.148438 -10.332031 L 19.796875 -21.648438 L 16.652344 -21.648438 L 10.699219 -12.734375 L 4.6875 -21.648438 Z M 9.191406 -7.371094 L 9.191406 0 L 12.148438 0 L 12.148438 -7.371094 Z M 9.191406 -7.371094 "/></g></g></g><g fill="#004d7a" fill-opacity="1"><g transform="translate(75.799759, 32.32941)"><g><path d="M 4.472656 -0.0625 L 4.472656 -7.523438 L 15.109375 -7.523438 L 15.109375 -0.0625 L 18.070312 -0.0625 L 18.070312 -9.992188 L 1.542969 -9.992188 L 1.542969 -0.0625 Z M 18.070312 -13.011719 L 18.070312 -21.585938 L 15.109375 -21.585938 L 15.109375 -13.011719 Z M 4.472656 -13.011719 L 4.472656 -21.585938 L 1.542969 -21.585938 L 1.542969 -13.011719 Z M 4.472656 -13.011719 "/></g></g></g><g fill="#004d7a" fill-opacity="1"><g transform="translate(95.379796, 32.32941)"><g><path d="M 15.171875 -21.617188 L 15.171875 -8.664062 C 15.171875 -6.628906 14.769531 -5.117188 13.90625 -4.101562 C 13.289062 -3.390625 12.425781 -2.929688 11.253906 -2.714844 L 11.253906 0.03125 C 13.289062 -0.183594 14.894531 -0.863281 16.035156 -2.035156 C 17.453125 -3.453125 18.132812 -5.550781 18.132812 -8.324219 L 18.132812 -21.617188 Z M 1.542969 -21.617188 L 1.542969 -8.324219 C 1.542969 -5.550781 2.25 -3.453125 3.640625 -2.035156 C 4.75 -0.925781 6.320312 -0.246094 8.296875 0 L 8.296875 -2.746094 C 7.183594 -2.960938 6.351562 -3.421875 5.734375 -4.101562 C 4.933594 -5.117188 4.503906 -6.628906 4.503906 -8.664062 L 4.503906 -21.617188 Z M 1.542969 -21.617188 "/></g></g></g><g fill="#004d7a" fill-opacity="1"><g transform="translate(115.021492, 32.32941)"><g><path d="M 1.574219 -21.648438 L 1.542969 -9.929688 C 2.527344 -9.960938 3.917969 -9.960938 5.765625 -9.929688 C 7.617188 -9.929688 8.851562 -9.898438 9.4375 -9.898438 L 10.054688 -9.898438 C 10.363281 -9.929688 10.546875 -9.960938 10.640625 -9.929688 C 10.761719 -9.929688 10.917969 -9.929688 11.132812 -9.898438 C 11.378906 -9.898438 11.503906 -9.867188 11.59375 -9.835938 C 11.71875 -9.835938 11.8125 -9.804688 11.964844 -9.746094 C 12.148438 -9.714844 12.242188 -9.652344 12.367188 -9.589844 C 12.488281 -9.527344 12.613281 -9.46875 12.703125 -9.34375 C 13.476562 -8.726562 13.847656 -7.710938 13.847656 -6.351562 C 13.847656 -5.027344 13.476562 -4.039062 12.703125 -3.359375 C 11.964844 -2.746094 10.792969 -2.40625 9.21875 -2.40625 L 4.503906 -2.40625 L 4.503906 -7.460938 L 1.574219 -7.460938 L 1.574219 0.03125 L 9.34375 0.03125 C 11.78125 0.03125 13.660156 -0.492188 14.957031 -1.542969 C 16.28125 -2.621094 16.929688 -4.132812 16.929688 -6.042969 C 16.929688 -7.371094 16.746094 -8.449219 16.375 -9.28125 C 16.035156 -10.144531 15.449219 -10.917969 14.648438 -11.65625 C 15.234375 -12.367188 15.574219 -13.042969 15.757812 -13.722656 C 15.941406 -14.402344 16.035156 -15.265625 16.035156 -16.28125 C 16.035156 -18.007812 15.480469 -19.335938 14.246094 -20.261719 C 13.042969 -21.183594 11.316406 -21.648438 9.066406 -21.648438 Z M 4.503906 -19.242188 L 8.851562 -19.242188 C 10.269531 -19.242188 11.347656 -18.996094 12.027344 -18.441406 C 12.765625 -17.886719 13.105469 -17.082031 13.105469 -15.972656 C 13.105469 -14.863281 12.765625 -14.0625 12.027344 -13.507812 C 11.347656 -12.984375 10.269531 -12.703125 8.851562 -12.703125 L 4.503906 -12.703125 Z M 4.503906 -19.242188 "/></g></g></g></svg>