<svg xmlns="http://www.w3.org/2000/svg" xmlns:xlink="http://www.w3.org/1999/xlink" width="500" zoomAndPan="magnify" viewBox="0 0 375 374.999991" height="500" preserveAspectRatio="xMidYMid meet" version="1.0"><defs><g/></defs><rect x="-37.5" width="450" fill="#ffffff" y="-37.499999" height="449.999989" fill-opacity="1"/><rect x="-37.5" width="450" fill="#ffffff" y="-37.499999" height="449.999989" fill-opacity="1"/><rect x="-37.5" width="450" fill="#ffffff" y="-37.499999" height="449.999989" fill-opacity="1"/><g fill="#004d7a" fill-opacity="1"><g transform="translate(21.944073, 211.216196)"><g><path d="M 29.324219 -34.5625 L 29.324219 -26.359375 C 31.417969 -25.660156 33.253906 -24.523438 34.738281 -23.042969 C 36.65625 -20.683594 37.355469 -18.328125 36.832031 -15.882812 C 36.394531 -13.441406 35.085938 -11.609375 32.816406 -10.296875 C 30.894531 -9.425781 28.800781 -8.816406 26.183594 -8.464844 C 23.652344 -8.203125 21.558594 -8.117188 19.726562 -8.203125 C 17.980469 -8.378906 15.449219 -8.464844 12.132812 -8.816406 C 8.902344 -9.164062 6.546875 -9.425781 5.148438 -9.511719 L 4.625 -1.308594 C 6.195312 -1.308594 8.902344 -1.132812 12.917969 -0.785156 C 17.019531 -0.4375 20.25 -0.347656 22.605469 -0.175781 C 25.046875 -0.0859375 27.753906 -0.261719 30.894531 -0.785156 C 34.125 -1.308594 36.832031 -2.269531 38.925781 -3.578125 C 43.113281 -6.285156 45.382812 -10.472656 45.734375 -16.058594 C 46.082031 -20.945312 44.859375 -24.785156 42.066406 -27.753906 C 39.449219 -30.722656 35.171875 -32.992188 29.324219 -34.5625 Z M 10.910156 -57.601562 C 6.894531 -54.898438 4.714844 -50.96875 4.363281 -45.734375 C 4.1875 -41.28125 5.324219 -37.703125 7.855469 -34.910156 C 10.296875 -32.46875 14.75 -30.371094 21.035156 -28.628906 L 21.035156 -36.742188 C 19.460938 -36.917969 17.980469 -37.53125 16.757812 -38.578125 C 15.535156 -39.710938 14.75 -40.933594 14.226562 -42.242188 C 13.703125 -43.640625 13.527344 -44.949219 13.789062 -46.34375 C 14.140625 -47.828125 14.835938 -49.050781 15.882812 -49.921875 C 17.105469 -50.796875 18.503906 -51.492188 20.335938 -51.929688 C 22.253906 -52.453125 24.351562 -52.714844 26.707031 -52.714844 C 29.152344 -52.804688 31.15625 -52.804688 32.816406 -52.714844 C 34.5625 -52.714844 36.570312 -52.542969 39.011719 -52.277344 C 41.457031 -52.105469 42.941406 -51.929688 43.289062 -51.84375 L 43.8125 -60.046875 L 37.441406 -60.484375 C 34.5625 -60.746094 32.117188 -60.917969 30.109375 -61.007812 C 28.191406 -61.179688 25.921875 -61.269531 23.390625 -61.09375 C 20.945312 -61.007812 18.589844 -60.746094 16.496094 -60.132812 C 14.402344 -59.609375 12.566406 -58.738281 10.910156 -57.601562 Z M 10.910156 -57.601562 "/></g></g></g><g fill="#004d7a" fill-opacity="1"><g transform="translate(72.036825, 211.216196)"><g><path d="M 4.363281 -61.445312 L 4.363281 -29.414062 L 12.65625 -29.414062 C 15.535156 -26.792969 18.414062 -24 21.382812 -20.945312 C 24.4375 -17.980469 28.363281 -13.964844 33.164062 -9.078125 C 38.054688 -4.1875 41.019531 -1.222656 42.066406 -0.0859375 L 53.066406 -0.0859375 L 20.421875 -32.816406 L 50.882812 -61.445312 L 40.148438 -61.445312 L 12.65625 -35.523438 L 12.65625 -61.445312 Z M 4.363281 -21.90625 L 4.363281 -0.0859375 L 12.65625 -0.0859375 L 12.65625 -21.90625 Z M 4.363281 -21.90625 "/></g></g></g><g fill="#004d7a" fill-opacity="1"><g transform="translate(129.372946, 211.216196)"><g><path d="M 4.363281 -61.269531 L 26.007812 -29.238281 L 34.386719 -29.238281 L 56.03125 -61.269531 L 47.128906 -61.269531 L 30.285156 -36.046875 L 13.265625 -61.269531 Z M 26.007812 -20.859375 L 26.007812 0 L 34.386719 0 L 34.386719 -20.859375 Z M 26.007812 -20.859375 "/></g></g></g><g fill="#004d7a" fill-opacity="1"><g transform="translate(189.763514, 211.216196)"><g><path d="M 12.65625 -0.175781 L 12.65625 -21.296875 L 42.765625 -21.296875 L 42.765625 -0.175781 L 51.144531 -0.175781 L 51.144531 -28.277344 L 4.363281 -28.277344 L 4.363281 -0.175781 Z M 51.144531 -36.832031 L 51.144531 -61.09375 L 42.765625 -61.09375 L 42.765625 -36.832031 Z M 12.65625 -36.832031 L 12.65625 -61.09375 L 4.363281 -61.09375 L 4.363281 -36.832031 Z M 12.65625 -36.832031 "/></g></g></g><g fill="#004d7a" fill-opacity="1"><g transform="translate(245.179704, 211.216196)"><g><path d="M 42.941406 -61.179688 L 42.941406 -24.523438 C 42.941406 -18.765625 41.804688 -14.488281 39.363281 -11.609375 C 37.617188 -9.601562 35.171875 -8.292969 31.855469 -7.679688 L 31.855469 0.0859375 C 37.617188 -0.523438 42.15625 -2.445312 45.382812 -5.761719 C 49.398438 -9.773438 51.320312 -15.710938 51.320312 -23.566406 L 51.320312 -61.179688 Z M 4.363281 -61.179688 L 4.363281 -23.566406 C 4.363281 -15.710938 6.371094 -9.773438 10.296875 -5.761719 C 13.441406 -2.617188 17.890625 -0.699219 23.476562 0 L 23.476562 -7.769531 C 20.335938 -8.378906 17.980469 -9.6875 16.234375 -11.609375 C 13.964844 -14.488281 12.742188 -18.765625 12.742188 -24.523438 L 12.742188 -61.179688 Z M 4.363281 -61.179688 "/></g></g></g><g fill="#004d7a" fill-opacity="1"><g transform="translate(300.770435, 211.216196)"><g><path d="M 4.449219 -61.269531 L 4.363281 -28.101562 C 7.15625 -28.191406 11.085938 -28.191406 16.320312 -28.101562 C 21.558594 -28.101562 25.046875 -28.015625 26.707031 -28.015625 L 28.453125 -28.015625 C 29.324219 -28.101562 29.847656 -28.191406 30.109375 -28.101562 C 30.460938 -28.101562 30.894531 -28.101562 31.507812 -28.015625 C 32.207031 -28.015625 32.554688 -27.929688 32.816406 -27.839844 C 33.164062 -27.839844 33.425781 -27.753906 33.863281 -27.578125 C 34.386719 -27.492188 34.648438 -27.316406 35 -27.144531 C 35.347656 -26.96875 35.695312 -26.792969 35.957031 -26.445312 C 38.140625 -24.699219 39.1875 -21.820312 39.1875 -17.980469 C 39.1875 -14.226562 38.140625 -11.433594 35.957031 -9.511719 C 33.863281 -7.769531 30.546875 -6.808594 26.097656 -6.808594 L 12.742188 -6.808594 L 12.742188 -21.121094 L 4.449219 -21.121094 L 4.449219 0.0859375 L 26.445312 0.0859375 C 33.339844 0.0859375 38.664062 -1.394531 42.328125 -4.363281 C 46.082031 -7.417969 47.914062 -11.695312 47.914062 -17.105469 C 47.914062 -20.859375 47.390625 -23.914062 46.34375 -26.269531 C 45.382812 -28.714844 43.726562 -30.894531 41.457031 -32.992188 C 43.113281 -35 44.074219 -36.917969 44.597656 -38.839844 C 45.121094 -40.757812 45.382812 -43.203125 45.382812 -46.082031 C 45.382812 -50.96875 43.8125 -54.722656 40.320312 -57.339844 C 36.917969 -59.960938 32.03125 -61.269531 25.660156 -61.269531 Z M 12.742188 -54.460938 L 25.046875 -54.460938 C 29.0625 -54.460938 32.117188 -53.761719 34.039062 -52.191406 C 36.132812 -50.621094 37.09375 -48.351562 37.09375 -45.210938 C 37.09375 -42.066406 36.132812 -39.796875 34.039062 -38.226562 C 32.117188 -36.742188 29.0625 -35.957031 25.046875 -35.957031 L 12.742188 -35.957031 Z M 12.742188 -54.460938 "/></g></g></g></svg>